# xmcd
#
# Track frame offsets:
#	150
#	11496
#	25710
#	40308
#	51354
#	63297
#	76422
#	90591
#	102117
#	116559
#	137499
#	149844
#	159597
#	174924
#	187347
#
# Disc length: 2694
#
# Revision: 1
# Processed by: cddbd v1.5.1PL0 Copyright (c) Steve Scherf et al.
# Submitted via: audiograbber 1.80
# Normalized: r0:TDELIM( - )
#
DISCID=c70a840f
DTITLE=Black Story - CD#1 - Jazz and Blues
DYEAR=1900
DGENRE=
TTITLE0=John Lee Hooker - Boom Boom
TTITLE1=Ella Fitzgerald - My heart belongs to daddy
TTITLE2=Lionel Hampton - On the sunny side of the streets
TTITLE3=Ray Charles - Sentimental Blues
TTITLE4=Dinah Washington - Salty papa blues
TTITLE5=Duke Ellington - Take the "A" train
TTITLE6=Billie Holiday - Strange fruit
TTITLE7=Muddy Waters - Gypsy women
TTITLE8=Miles Davis - Venus de Milo
TTITLE9=BB King - The thrill has come
TTITLE10=The ink spots - Gypsy
TTITLE11=Nat king Cole trio - It's only a paper moon
TTITLE12=sarah Vaughan - Come rain or come shine
TTITLE13=Louis Jordan and his Tympani Five - Choo Choo Ch'Boogie
TTITLE14=Sydney Bechet - Petite fleur
EXTD=
EXTT0=
EXTT1=
EXTT2=
EXTT3=
EXTT4=
EXTT5=
EXTT6=
EXTT7=
EXTT8=
EXTT9=
EXTT10=
EXTT11=
EXTT12=
EXTT13=
EXTT14=
PLAYORDER=
